<?xml version="1.0" standalone="no"?>
<!DOCTYPE svg PUBLIC "-//W3C//DTD SVG 20010904//EN"
 "http://www.w3.org/TR/2001/REC-SVG-20010904/DTD/svg10.dtd">
<svg version="1.0" xmlns="http://www.w3.org/2000/svg"
 width="256.000000pt" height="256.000000pt" viewBox="0 0 256.000000 256.000000"
 preserveAspectRatio="xMidYMid meet">
<metadata>
Created by potrace 1.14, written by Peter Selinger 2001-2017
</metadata>
<g transform="translate(0.000000,256.000000) scale(0.100000,-0.100000)"
fill="#000000" stroke="none">
<path d="M968 2466 c6 -116 -19 -221 -84 -356 -46 -97 -151 -277 -211 -362
-18 -26 -33 -50 -33 -54 0 -3 -11 -20 -25 -38 -14 -18 -25 -35 -25 -39 0 -3
-21 -41 -46 -84 -103 -172 -167 -343 -192 -508 -3 -22 -6 -89 -5 -150 1 -395
289 -743 698 -845 67 -17 122 -23 215 -24 154 -1 209 6 324 45 307 102 527
334 607 641 46 171 24 412 -55 617 -142 368 -467 771 -861 1066 -101 76 -232
156 -281 173 l-31 10 5 -92z"/>
</g>
</svg>
