<svg width="71" height="41" viewBox="0 0 71 41" fill="none" xmlns="http://www.w3.org/2000/svg">
<circle cx="49.5" cy="20.5" r="20.5" fill="#EF5DA8"/>
<path d="M1.092 24V17.64H2.244V24H1.092ZM1.668 16.416C1.444 16.416 1.256 16.344 1.104 16.2C0.96 16.056 0.888 15.88 0.888 15.672C0.888 15.456 0.96 15.276 1.104 15.132C1.256 14.988 1.444 14.916 1.668 14.916C1.892 14.916 2.076 14.988 2.22 15.132C2.372 15.268 2.448 15.44 2.448 15.648C2.448 15.864 2.376 16.048 2.232 16.2C2.088 16.344 1.9 16.416 1.668 16.416ZM7.83956 17.58C8.35956 17.58 8.81556 17.68 9.20756 17.88C9.60756 18.08 9.91956 18.384 10.1436 18.792C10.3676 19.2 10.4796 19.716 10.4796 20.34V24H9.32756V20.472C9.32756 19.856 9.17556 19.392 8.87156 19.08C8.57556 18.768 8.15556 18.612 7.61156 18.612C7.20356 18.612 6.84756 18.692 6.54356 18.852C6.23956 19.012 6.00356 19.248 5.83556 19.56C5.67556 19.872 5.59556 20.26 5.59556 20.724V24H4.44356V17.64H5.54756V19.356L5.36756 18.9C5.57556 18.484 5.89556 18.16 6.32756 17.928C6.75956 17.696 7.26356 17.58 7.83956 17.58ZM14.7955 24.072C14.1555 24.072 13.6595 23.9 13.3075 23.556C12.9555 23.212 12.7795 22.72 12.7795 22.08V16.248H13.9315V22.032C13.9315 22.376 14.0155 22.64 14.1835 22.824C14.3595 23.008 14.6075 23.1 14.9275 23.1C15.2875 23.1 15.5875 23 15.8275 22.8L16.1875 23.628C16.0115 23.78 15.7995 23.892 15.5515 23.964C15.3115 24.036 15.0595 24.072 14.7955 24.072ZM11.6995 18.588V17.64H15.7555V18.588H11.6995ZM17.5803 24V17.64H18.6843V19.368L18.5763 18.936C18.7523 18.496 19.0483 18.16 19.4643 17.928C19.8803 17.696 20.3923 17.58 21.0003 17.58V18.696C20.9523 18.688 20.9043 18.684 20.8563 18.684C20.8163 18.684 20.7763 18.684 20.7363 18.684C20.1203 18.684 19.6323 18.868 19.2723 19.236C18.9123 19.604 18.7323 20.136 18.7323 20.832V24H17.5803ZM25.0855 24.072C24.4455 24.072 23.8775 23.932 23.3815 23.652C22.8855 23.372 22.4935 22.988 22.2055 22.5C21.9175 22.004 21.7735 21.444 21.7735 20.82C21.7735 20.188 21.9175 19.628 22.2055 19.14C22.4935 18.652 22.8855 18.272 23.3815 18C23.8775 17.72 24.4455 17.58 25.0855 17.58C25.7175 17.58 26.2815 17.72 26.7775 18C27.2815 18.272 27.6735 18.652 27.9535 19.14C28.2415 19.62 28.3855 20.18 28.3855 20.82C28.3855 21.452 28.2415 22.012 27.9535 22.5C27.6735 22.988 27.2815 23.372 26.7775 23.652C26.2815 23.932 25.7175 24.072 25.0855 24.072ZM25.0855 23.064C25.4935 23.064 25.8575 22.972 26.1775 22.788C26.5055 22.604 26.7615 22.344 26.9455 22.008C27.1295 21.664 27.2215 21.268 27.2215 20.82C27.2215 20.364 27.1295 19.972 26.9455 19.644C26.7615 19.308 26.5055 19.048 26.1775 18.864C25.8575 18.68 25.4935 18.588 25.0855 18.588C24.6775 18.588 24.3135 18.68 23.9935 18.864C23.6735 19.048 23.4175 19.308 23.2255 19.644C23.0335 19.972 22.9375 20.364 22.9375 20.82C22.9375 21.268 23.0335 21.664 23.2255 22.008C23.4175 22.344 23.6735 22.604 23.9935 22.788C24.3135 22.972 24.6775 23.064 25.0855 23.064Z" fill="black"/>
<circle cx="50.5" cy="20.5" r="20" fill="url(#paint0_linear_5_25)" stroke="white"/>
<path d="M37.504 24.096C36.744 24.096 36.152 23.904 35.728 23.52C35.304 23.128 35.092 22.548 35.092 21.78V16.116H36.964V21.756C36.964 22.028 37.036 22.24 37.18 22.392C37.324 22.536 37.52 22.608 37.768 22.608C38.064 22.608 38.316 22.528 38.524 22.368L39.028 23.688C38.836 23.824 38.604 23.928 38.332 24C38.068 24.064 37.792 24.096 37.504 24.096ZM34.096 19.128V17.688H38.572V19.128H34.096ZM40.0788 24V17.544H41.8668V19.368L41.6148 18.84C41.8068 18.384 42.1148 18.04 42.5388 17.808C42.9628 17.568 43.4788 17.448 44.0868 17.448V19.176C44.0068 19.168 43.9348 19.164 43.8708 19.164C43.8068 19.156 43.7388 19.152 43.6668 19.152C43.1548 19.152 42.7388 19.3 42.4188 19.596C42.1068 19.884 41.9508 20.336 41.9508 20.952V24H40.0788ZM48.7381 24V22.74L48.6181 22.464V20.208C48.6181 19.808 48.4941 19.496 48.2461 19.272C48.0061 19.048 47.6341 18.936 47.1301 18.936C46.7861 18.936 46.4461 18.992 46.1101 19.104C45.7821 19.208 45.5021 19.352 45.2701 19.536L44.5981 18.228C44.9501 17.98 45.3741 17.788 45.8701 17.652C46.3661 17.516 46.8701 17.448 47.3821 17.448C48.3661 17.448 49.1301 17.68 49.6741 18.144C50.2181 18.608 50.4901 19.332 50.4901 20.316V24H48.7381ZM46.7701 24.096C46.2661 24.096 45.8341 24.012 45.4741 23.844C45.1141 23.668 44.8381 23.432 44.6461 23.136C44.4541 22.84 44.3581 22.508 44.3581 22.14C44.3581 21.756 44.4501 21.42 44.6341 21.132C44.8261 20.844 45.1261 20.62 45.5341 20.46C45.9421 20.292 46.4741 20.208 47.1301 20.208H48.8461V21.3H47.3341C46.8941 21.3 46.5901 21.372 46.4221 21.516C46.2621 21.66 46.1821 21.84 46.1821 22.056C46.1821 22.296 46.2741 22.488 46.4581 22.632C46.6501 22.768 46.9101 22.836 47.2381 22.836C47.5501 22.836 47.8301 22.764 48.0781 22.62C48.3261 22.468 48.5061 22.248 48.6181 21.96L48.9061 22.824C48.7701 23.24 48.5221 23.556 48.1621 23.772C47.8021 23.988 47.3381 24.096 46.7701 24.096ZM55.3512 24.096C54.6552 24.096 54.0352 23.956 53.4912 23.676C52.9472 23.388 52.5192 22.992 52.2072 22.488C51.9032 21.984 51.7512 21.412 51.7512 20.772C51.7512 20.124 51.9032 19.552 52.2072 19.056C52.5192 18.552 52.9472 18.16 53.4912 17.88C54.0352 17.592 54.6552 17.448 55.3512 17.448C56.0312 17.448 56.6232 17.592 57.1272 17.88C57.6312 18.16 58.0032 18.564 58.2432 19.092L56.7912 19.872C56.6232 19.568 56.4112 19.344 56.1552 19.2C55.9072 19.056 55.6352 18.984 55.3392 18.984C55.0192 18.984 54.7312 19.056 54.4752 19.2C54.2192 19.344 54.0152 19.548 53.8632 19.812C53.7192 20.076 53.6472 20.396 53.6472 20.772C53.6472 21.148 53.7192 21.468 53.8632 21.732C54.0152 21.996 54.2192 22.2 54.4752 22.344C54.7312 22.488 55.0192 22.56 55.3392 22.56C55.6352 22.56 55.9072 22.492 56.1552 22.356C56.4112 22.212 56.6232 21.984 56.7912 21.672L58.2432 22.464C58.0032 22.984 57.6312 23.388 57.1272 23.676C56.6232 23.956 56.0312 24.096 55.3512 24.096ZM62.443 24.096C61.707 24.096 61.059 23.952 60.499 23.664C59.947 23.376 59.519 22.984 59.215 22.488C58.911 21.984 58.759 21.412 58.759 20.772C58.759 20.124 58.907 19.552 59.203 19.056C59.507 18.552 59.919 18.16 60.439 17.88C60.959 17.592 61.547 17.448 62.203 17.448C62.835 17.448 63.403 17.584 63.907 17.856C64.419 18.12 64.823 18.504 65.119 19.008C65.415 19.504 65.563 20.1 65.563 20.796C65.563 20.868 65.559 20.952 65.551 21.048C65.543 21.136 65.535 21.22 65.527 21.3H60.283V20.208H64.543L63.823 20.532C63.823 20.196 63.755 19.904 63.619 19.656C63.483 19.408 63.295 19.216 63.055 19.08C62.815 18.936 62.535 18.864 62.215 18.864C61.895 18.864 61.611 18.936 61.363 19.08C61.123 19.216 60.935 19.412 60.799 19.668C60.663 19.916 60.595 20.212 60.595 20.556V20.844C60.595 21.196 60.671 21.508 60.823 21.78C60.983 22.044 61.203 22.248 61.483 22.392C61.771 22.528 62.107 22.596 62.491 22.596C62.835 22.596 63.135 22.544 63.391 22.44C63.655 22.336 63.895 22.18 64.111 21.972L65.107 23.052C64.811 23.388 64.439 23.648 63.991 23.832C63.543 24.008 63.027 24.096 62.443 24.096Z" fill="white"/>
<ellipse cx="51.9635" cy="7.09649" rx="9.5" ry="3.5" transform="rotate(10 51.9635 7.09649)" fill="white" fill-opacity="0.22"/>
<defs>
<linearGradient id="paint0_linear_5_25" x1="50.5" y1="0" x2="50.5" y2="41" gradientUnits="userSpaceOnUse">
<stop stop-color="#EF5DA8" stop-opacity="0"/>
<stop offset="1" stop-color="#5D5FEF"/>
</linearGradient>
</defs>
</svg>
